Coordinates
version=1
nRows=18
nColumns=22
inDegrees=yes

Units are S.I. units (second, meters, Newtons, ...)
If the header above contains a line with 'inDegrees', this indicates whether rotational values are in degrees (yes) or radians (no).

endheader
time	pelvis_tilt	pelvis_list	pelvis_rotation	pelvis_tx	pelvis_ty	pelvis_tz	hip_flexion_r	hip_adduction_r	hip_rotation_r	knee_angle_r	ankle_angle_r	subtalar_angle_r	hip_flexion_l	hip_adduction_l	hip_rotation_l	knee_angle_l	ankle_angle_l	subtalar_angle_l	lumbar_extension	lumbar_bending	lumbar_rotation
      2.74000000	      2.65161979	      3.92660528	    -28.03060362	     -0.22462661	      1.05486630	     -0.37958182	     -6.35340408	     -1.59676663	      8.10956965	    -33.86266458	     10.11282494	      4.57288270	     18.03360249	      2.45852717	      9.28338998	    -16.21849305	      3.70760257	      7.86846434	     -3.06083973	     -5.41638632	     -2.61423073
      2.75000000	      2.82663540	      4.11079873	    -28.51796072	     -0.21465269	      1.05609090	     -0.37668558	     -5.53305304	     -1.93387507	      8.25760601	    -36.02610658	      7.96427931	      5.77738706	     17.60721795	      2.77381330	      9.09733898	    -16.68902804	      3.96005524	      7.64685674	     -2.99761996	     -5.69804503	     -2.60054333
      2.76000000	      3.01326967	      4.27962782	    -29.09874520	     -0.20502034	      1.05735588	     -0.37367101	     -4.57224220	     -2.26266093	      8.42398755	    -38.30553953	      5.65357064	      6.85317655	     17.07251281	      3.03148980	      8.72003441	    -16.96488285	      4.28577431	      7.37948914	     -2.97682887	     -5.97220689	     -2.51735359
      2.77000000	      3.20757756	      4.45222867	    -29.71897707	     -0.19572224	      1.05860758	     -0.37063707	     -3.49331221	     -2.58120888	      8.62651855	    -40.63744000	      3.25795895	      7.92173972	     16.47388437	      3.27683747	      8.22813855	    -17.10061916	      4.66463348	      7.04324408	     -2.99538143	     -6.25013591	     -2.47305665
      2.78000000	      3.42685775	      4.63180116	    -30.42391607	     -0.18677608	      1.05983970	     -0.36751426	     -2.30718730	     -2.91765810	      8.84741284	    -43.00297817	      0.94376693	      8.79831534	     15.77693923	      3.50713968	      7.56341020	    -17.05364923	      5.04516272	      6.69798220	     -3.05615491	     -6.54752586	     -2.38917663
      2.79000000	      3.65799773	      4.81829601	    -31.16111166	     -0.17813971	      1.06102227	     -0.36437125	     -1.03496504	     -3.26020442	      9.05795300	    -45.34694925	     -1.14017261	      9.57456448	     15.01745867	      3.74076064	      6.80332099	    -16.86341701	      5.40234737	      6.32998949	     -3.14632787	     -6.85458511	     -2.33418620
      2.80000000	      3.92177126	      5.01749276	    -31.93849769	     -0.16978015	      1.06215285	     -0.36120146	      0.28608145	     -3.62822247	      9.26689365	    -47.63261325	     -2.80570423	     10.11184362	     14.19341001	      4.00189250	      5.97479527	    -16.56039848	      5.76725873	      5.99421239	     -3.27555602	     -7.18781434	     -2.28950868
      2.81000000	      4.18774480	      5.20868582	    -32.69809268	     -0.16163663	      1.06323980	     -0.35804902	      1.63395659	     -3.98047640	      9.44180272	    -49.80237690	     -3.97543859	     10.46326283	     13.33996836	      4.27562479	      5.16254784	    -16.17521374	      6.08248743	      5.66953282	     -3.42245511	     -7.50598937	     -2.34086225
      2.82000000	      4.46802711	      5.38178994	    -33.43616141	     -0.15364784	      1.06431926	     -0.35489159	      2.96379772	     -4.31840942	      9.57743127	    -51.81755585	     -4.57137313	     10.53459359	     12.44977988	      4.56356363	      4.39565562	    -15.73159129	      6.36012029	      5.43958532	     -3.59458059	     -7.80602340	     -2.47962985
      2.83000000	      4.69466607	      5.52970131	    -34.11869811	     -0.14584294	      1.06529304	     -0.35180418	      4.32668226	     -4.59197850	      9.65724004	    -53.67530928	     -4.61301496	     10.38802990	     11.62952003	      4.83216981	      3.73952790	    -15.32271479	      6.63278458	      5.09463265	     -3.74205210	     -8.04096640	     -2.68479068
      2.84000000	      4.93361615	      5.62994866	    -34.74105906	     -0.13812109	      1.06631101	     -0.34871525	      5.61071937	     -4.82744443	      9.66268748	    -55.32340907	     -4.16621151	     10.05147391	     10.78619014	      5.09178680	      3.17239389	    -14.91778562	      6.87448488	      4.90865596	     -3.92899643	     -8.23113843	     -2.98467185
      2.85000000	      5.10424356	      5.68303900	    -35.29098781	     -0.13055972	      1.06725448	     -0.34566775	      6.89350708	     -4.96535747	      9.59524335	    -56.77581538	     -3.39838068	      9.34298838	     10.02257589	      5.29839144	      2.75723314	    -14.58093452	      7.14096408	      4.64200052	     -4.08992915	     -8.33156997	     -3.33304331
      2.86000000	      5.25383615	      5.67037001	    -35.76346200	     -0.12309705	      1.06822398	     -0.34262967	      8.09658198	     -5.02838761	      9.43913589	    -58.00699276	     -2.39975772	      8.57639849	      9.27800350	      5.45261550	      2.40796246	    -14.30138358	      7.38679794	      4.43435721	     -4.27897141	     -8.35390531	     -3.75440563
      2.87000000	      5.40367899	      5.62729194	    -36.19532560	     -0.11577204	      1.06918900	     -0.33957370	      9.24116148	     -5.05796027	      9.23532161	    -59.04589771	     -1.33945707	      7.94714255	      8.54902578	      5.59127935	      2.08496493	    -14.06875473	      7.63534001	      4.27472737	     -4.49074027	     -8.35181356	     -4.19240855
      2.88000000	      5.47282613	      5.49562651	    -36.56188066	     -0.10857315	      1.07013469	     -0.33646119	     10.32893562	     -4.94408862	      8.95288298	    -59.85768453	     -0.30513063	      7.08782005	      7.84432101	      5.61426528	      1.85650588	    -13.85061756	      7.89450467	      4.04415516	     -4.68571117	     -8.22139651	     -4.62376050
      2.89000000	      5.55584565	      5.34350818	    -36.91771609	     -0.10157907	      1.07105095	     -0.33329753	     11.35868954	     -4.80384272	      8.66195060	    -60.50081170	      0.63005952	      6.46241566	      7.14251944	      5.62781266	      1.59062152	    -13.66732925	      8.16253318	      3.83839451	     -4.91773806	     -8.09291275	     -5.03870784
      2.90000000	      5.60676490	      5.14275542	    -37.24448597	     -0.09474568	      1.07192292	     -0.33007063	     12.33272859	     -4.59146253	      8.32345931	    -60.95714935	      1.44706601	      5.87931184	      6.44834370	      5.58046929	      1.31623225	    -13.49427771	      8.44038500	      3.60436100	     -5.15569331	     -7.91025110	     -5.42074202
      2.91000000	      5.64343099	      4.92180632	    -37.56198156	     -0.08812482	      1.07272162	     -0.32677416	     13.26721265	     -4.33836173	      7.96665624	    -61.25064700	      2.15270405	      5.37259769	      5.76562186	      5.50497035	      1.02581807	    -13.32973431	      8.71349454	      3.35712384	     -5.40319837	     -7.71676768	     -5.76314275
